# xmcd
#
# Track frame offsets:
#	150
#	18774
#	35055
#	48596
#	62754
#	75428
#	87919
#	100344
#	115872
#
# Disc length: 1726 seconds
#
# Revision: 1
# Processed by: cddbd v1.5.2PL0 Copyright (c) Steve Scherf et al.
# Submitted via: audiograbber 1.83.01
#
DISCID=6906bc09
DTITLE=Tima 2000 - Tima 2000
DYEAR=2000
DGENRE=Country
TTITLE0=You Came Into My Life - Stephanie Starr
TTITLE1=I Will Love You Still - Slim Whitman
TTITLE2=Stardust On The Purple Sage - Joe Price
TTITLE3=The More I Know About Women The Better I Like My Truck - Tony Willar
TTITLE4=More And More - The Nicks
TTITLE5=Mockingbird Mansion - Lawton Williams
TTITLE6=Mostly Cloudly - Smokey Stover
TTITLE7=Golden Oldies - Jimmy Lee Fautheree
TTITLE8=It Won´t Be Much Longer - Jimmy And Johnny
EXTD=
EXTT0=
EXTT1=
EXTT2=
EXTT3=
EXTT4=
EXTT5=
EXTT6=
EXTT7=
EXTT8=
PLAYORDER=
